<svg xmlns="http://www.w3.org/2000/svg" height="40" viewBox="0 -960 960 960" width="40"><path d="M479-50.667q-87.289 0-166.08-33.494-78.791-33.493-137.169-91.673-58.377-58.18-91.73-136.844-33.354-78.665-33.354-167.313 0-88.649 33.494-167.264 33.493-78.616 91.568-137.029 58.075-58.412 136.789-92.064Q391.232-910 479.936-910q88.704 0 167.398 33.741 78.695 33.74 137.058 91.866 58.363 58.127 91.985 137.065Q910-568.391 910-481v55.003q0 63.311-46.578 106.987Q816.845-275.334 752-275.334q-40.636 0-73.818-17.833Q645-311.001 626-343.668q-25.667 35.334-64.292 51.834-38.626 16.5-81.504 16.5-85.02 0-145.279-59.771-60.258-59.77-60.258-145.215 0-85.985 60.072-145.832 60.072-59.847 145.011-59.847 84.94 0 145.261 59.849Q685.333-566.3 685.333-480v47.622q0 27.804 19.711 46.091Q724.755-368 752.31-368q26.266 0 44.811-18.287 18.546-18.287 18.546-46.091V-481q0-139.467-98.135-237.067t-237.652-97.6q-139.518 0-237.532 98.135-98.015 98.135-98.015 237.652 0 139.518 97.6 237.532 97.6 98.015 237.067 98.015h165.001q19.891 0 32.945 13.423Q690-117.486 690-97.679q0 20.433-13.054 33.723-13.054 13.289-32.945 13.289H479ZM480.333-368q45.667 0 79-33.461 33.334-33.461 33.334-78.833 0-46.373-33.667-79.706-33.667-33.334-79.333-33.334-45.667 0-79 33.628-33.334 33.628-33.334 80 0 45.373 33.667 78.539Q434.667-368 480.333-368Z"/></svg>